<?xml version="1.0" encoding="UTF-8" standalone="no"?>
<svg
   xmlns:dc="http://purl.org/dc/elements/1.1/"
   xmlns:cc="http://creativecommons.org/ns#"
   xmlns:rdf="http://www.w3.org/1999/02/22-rdf-syntax-ns#"
   xmlns:svg="http://www.w3.org/2000/svg"
   xmlns="http://www.w3.org/2000/svg"
   xmlns:sodipodi="http://sodipodi.sourceforge.net/DTD/sodipodi-0.dtd"
   xmlns:inkscape="http://www.inkscape.org/namespaces/inkscape"
   inkscape:version="1.0 (4035a4fb49, 2020-05-01)"
   sodipodi:docname="calendarBlack.svg"
   version="1.1"
   width="512"
   viewBox="0 0 511.977 511.977"
   height="512"
   enable-background="new 0 0 511.977 511.977"
   id="Capa_1">
  <metadata
     id="metadata15">
    <rdf:RDF>
      <cc:Work
         rdf:about="">
        <dc:format>image/svg+xml</dc:format>
        <dc:type
           rdf:resource="http://purl.org/dc/dcmitype/StillImage" />
      </cc:Work>
    </rdf:RDF>
  </metadata>
  <defs
     id="defs13" />
  <sodipodi:namedview
     inkscape:current-layer="Capa_1"
     inkscape:window-maximized="1"
     inkscape:window-y="-9"
     inkscape:window-x="-9"
     inkscape:cy="254.76627"
     inkscape:cx="256"
     inkscape:zoom="1.6210938"
     showgrid="false"
     id="namedview11"
     inkscape:window-height="1001"
     inkscape:window-width="1920"
     inkscape:pageshadow="2"
     inkscape:pageopacity="0"
     guidetolerance="10"
     gridtolerance="10"
     objecttolerance="10"
     borderopacity="1"
     bordercolor="#666666"
     pagecolor="#ffffff" />
  <g
     id="g8">
    <path
       id="path2"
       d="m14.977 390.988h392c3.516 0 6.914-1.23 9.609-3.472 3.765-3.153 89.652-77.038 94.889-236.528h-421c-5.217 144.774-84.315 212.822-85.137 213.501-4.819 4.072-6.592 10.723-4.424 16.641 2.153 5.903 7.764 9.858 14.063 9.858z" />
    <path
       id="path4"
       d="m496.976 60.988h-75v-15c0-8.4-6.6-15-15-15s-15 6.6-15 15v15h-76v-15c0-8.4-6.6-15-15-15s-15 6.6-15 15v15h-75v-15c0-8.4-6.6-15-15-15s-15 6.6-15 15v15h-75c-8.4 0-15 6.6-15 15v45h421v-45c0-8.4-6.6-15-15-15z" />
    <path
       id="path6"
       d="m435.849 410.515c-8.145 6.782-18.369 10.474-28.872 10.474h-316v45c0 8.291 6.709 15 15 15h391c8.291 0 15-6.709 15-15v-168.146c-28.92 70.951-69.276 106.937-76.128 112.672z" />
  </g>
  <path
     transform="scale(0.99995508)"
     id="path840"
     d="m 8.967696,389.2086 c -5.4064484,-2.69696 -8.35082853,-7.32782 -8.35082853,-13.13401 0,-1.93945 0.40671353,-4.49966 0.90380793,-5.68938 0.4970944,-1.18971 4.8691426,-6.26231 9.7156626,-11.27243 17.750165,-18.34935 32.208664,-39.40366 45.181128,-65.7923 19.397008,-39.45746 30.520899,-82.5462 33.721614,-130.62168 l 0.770048,-11.56627 H 301.09856 511.28799 l -0.28081,4.78072 c -2.08534,35.50179 -6.11394,61.69558 -13.7932,89.68267 -14.42557,52.57406 -41.17745,101.66323 -73.12001,134.17378 -5.38228,5.47798 -8.93427,8.57825 -10.79518,9.42232 -2.77316,1.25784 -2.7971,1.25799 -202.33012,1.24696 C 13.443966,390.42806 11.387159,390.41554 8.967696,389.2086 Z"
     style="fill:#ffffff;stroke-width:0.618101;paint-order:fill markers stroke" />
  <path
     transform="scale(0.99995508)"
     id="path842"
     d="m 91.302412,97.00241 c 0.006,-23.736824 0.01606,-23.925168 1.44442,-26.992442 0.791117,-1.698855 2.450035,-3.97706 3.686485,-5.062677 4.394473,-3.858403 4.623873,-3.877411 46.791903,-3.877411 h 38.13382 v -8.964392 c 0,-9.640434 0.43421,-11.577834 3.49388,-15.589268 2.04237,-2.677689 7.05496,-5.043123 10.69407,-5.046513 4.2419,-0.004 6.97587,1.001706 10.02875,3.688963 4.15127,3.654089 4.91229,6.088888 5.2549,16.812414 l 0.29071,9.098796 h 37.55258 37.55258 v -8.558588 c 0,-12.07304 1.76829,-16.278352 8.19061,-19.478729 7.39992,-3.687533 15.68332,-0.856577 19.76633,6.755389 1.1514,2.146547 1.35214,3.690987 1.54348,11.874699 l 0.21994,9.407229 h 38.13622 38.13622 l 0.20842,-9.766208 c 0.20554,-9.631518 0.23416,-9.807823 2.07533,-12.783693 2.52928,-4.088083 6.64236,-6.596473 11.37813,-6.939027 4.52442,-0.327267 7.5255,0.656087 10.68381,3.500726 4.14733,3.735432 4.97314,6.387512 5.25908,16.889406 l 0.24774,9.098796 37.40746,0.0068 c 20.57411,0.0038 38.45346,0.179666 39.7319,0.39096 4.05801,0.67069 8.43972,3.829431 10.57234,7.621528 l 1.90805,3.392771 0.19862,24.212046 0.19861,24.212045 H 301.69259 91.296386 l 0.006,-23.903611 z"
     style="fill:#ffffff;stroke-width:0.618101;paint-order:fill markers stroke" />
  <path
     transform="scale(0.99995508)"
     id="path844"
     d="m 100.22727,479.38555 c -2.844686,-1.29225 -6.017876,-4.26559 -7.560943,-7.08475 -0.944378,-1.72536 -1.081454,-4.64425 -1.242271,-26.45299 l -0.180764,-24.51363 161.800038,-0.16107 c 153.36471,-0.15267 161.99301,-0.21858 165.50125,-1.26436 9.90513,-2.95264 16.20597,-7.16063 27.13673,-18.12315 24.12435,-24.19447 46.50143,-57.83845 62.29477,-93.6603 1.94457,-4.4106 3.65213,-8.14161 3.79459,-8.29114 0.14244,-0.14952 0.18292,37.88036 0.0899,84.51085 l -0.16905,84.7827 -1.44218,2.92847 c -1.73,3.51291 -5.37543,6.78694 -8.64881,7.76767 -1.7923,0.53698 -51.93821,0.71252 -200.64082,0.70236 -190.66732,-0.013 -198.34624,-0.0567 -200.73249,-1.14066 z"
     style="fill:#ffffff;stroke-width:0.618101;paint-order:fill markers stroke" />
</svg>
