<?xml version="1.0" encoding="iso-8859-1"?>
<!-- Generator: Adobe Illustrator 19.0.0, SVG Export Plug-In . SVG Version: 6.00 Build 0)  -->
<svg version="1.1" id="Capa_1" xmlns="http://www.w3.org/2000/svg" xmlns:xlink="http://www.w3.org/1999/xlink" x="0px" y="0px"
	 viewBox="0 0 512 512" style="enable-background:new 0 0 512 512;" xml:space="preserve">
<g>
	<g>
		<path d="M57.451,221.781c-2.688-2.112-3.947-5.269-3.947-8.448h-0.171v-72.555l-31.168,25.963
			c-7.317,6.101-11.499,15.061-11.499,24.576V480c0,5.568,1.557,10.709,4.053,15.275l178.411-139.584l18.261-14.272L57.451,221.781z
			"/>
	</g>
</g>
<g>
	<g>
		<path d="M489.835,166.741l-31.168-25.963v72.555h-0.171c0,3.179-1.237,6.336-3.947,8.427L300.672,341.355l39.488,30.656
			l157.611,122.368c2.197-4.352,3.563-9.173,3.563-14.379V191.317C501.333,181.803,497.152,172.843,489.835,166.741z"/>
	</g>
</g>
<g>
	<g>
		<path d="M273.451,347.243c-10.389-7.893-24.512-7.893-34.987,0.064L30.933,509.696C34.56,511.147,38.507,512,42.667,512h426.667
			c4.565,0,8.896-1.003,12.821-2.731L273.451,347.243z"/>
	</g>
</g>
<g>
	<g>
		<path d="M74.667,0v208.128l154.389,119.979c16.683-10.645,37.312-10.645,53.909,0l154.368-119.979V0H74.667z M320,170.667h-53.333
			V224c0,5.888-4.779,10.667-10.667,10.667s-10.667-4.779-10.667-10.667v-53.333H192c-5.888,0-10.667-4.779-10.667-10.667
			s4.779-10.667,10.667-10.667h53.333V96c0-5.888,4.779-10.667,10.667-10.667S266.667,90.112,266.667,96v53.333H320
			c5.888,0,10.667,4.779,10.667,10.667S325.888,170.667,320,170.667z"/>
	</g>
</g>
<g>
</g>
<g>
</g>
<g>
</g>
<g>
</g>
<g>
</g>
<g>
</g>
<g>
</g>
<g>
</g>
<g>
</g>
<g>
</g>
<g>
</g>
<g>
</g>
<g>
</g>
<g>
</g>
<g>
</g>
</svg>
