<?xml version="1.0" encoding="UTF-8" standalone="no"?>
<svg
   xmlns:dc="http://purl.org/dc/elements/1.1/"
   xmlns:cc="http://creativecommons.org/ns#"
   xmlns:rdf="http://www.w3.org/1999/02/22-rdf-syntax-ns#"
   xmlns:svg="http://www.w3.org/2000/svg"
   xmlns="http://www.w3.org/2000/svg"
   xmlns:sodipodi="http://sodipodi.sourceforge.net/DTD/sodipodi-0.dtd"
   xmlns:inkscape="http://www.inkscape.org/namespaces/inkscape"
   inkscape:version="1.0 (4035a4fb49, 2020-05-01)"
   sodipodi:docname="invitation.svg"
   xml:space="preserve"
   style="enable-background:new 0 0 512 512;"
   viewBox="0 0 512 512"
   y="0px"
   x="0px"
   id="Capa_1"
   version="1.1"><metadata
   id="metadata61"><rdf:RDF><cc:Work
       rdf:about=""><dc:format>image/svg+xml</dc:format><dc:type
         rdf:resource="http://purl.org/dc/dcmitype/StillImage" /><dc:title></dc:title></cc:Work></rdf:RDF></metadata><defs
   id="defs59" /><sodipodi:namedview
   inkscape:current-layer="Capa_1"
   inkscape:window-maximized="1"
   inkscape:window-y="-9"
   inkscape:window-x="-9"
   inkscape:cy="279.44096"
   inkscape:cx="256"
   inkscape:zoom="1.6210938"
   showgrid="false"
   id="namedview57"
   inkscape:window-height="1001"
   inkscape:window-width="1920"
   inkscape:pageshadow="2"
   inkscape:pageopacity="0"
   guidetolerance="10"
   gridtolerance="10"
   objecttolerance="10"
   borderopacity="1"
   bordercolor="#666666"
   pagecolor="#ffffff" />
<g
   id="g6">
	<g
   id="g4">
		<path
   id="path2"
   d="M57.451,221.781c-2.688-2.112-3.947-5.269-3.947-8.448h-0.171v-72.555l-31.168,25.963    c-7.317,6.101-11.499,15.061-11.499,24.576V480c0,5.568,1.557,10.709,4.053,15.275l178.411-139.584l18.261-14.272L57.451,221.781z    " />
	</g>
</g>
<g
   id="g12">
	<g
   id="g10">
		<path
   id="path8"
   d="M489.835,166.741l-31.168-25.963v72.555h-0.171c0,3.179-1.237,6.336-3.947,8.427L300.672,341.355l39.488,30.656    l157.611,122.368c2.197-4.352,3.563-9.173,3.563-14.379V191.317C501.333,181.803,497.152,172.843,489.835,166.741z" />
	</g>
</g>
<g
   id="g18">
	<g
   id="g16">
		<path
   id="path14"
   d="M273.451,347.243c-10.389-7.893-24.512-7.893-34.987,0.064L30.933,509.696C34.56,511.147,38.507,512,42.667,512h426.667    c4.565,0,8.896-1.003,12.821-2.731L273.451,347.243z" />
	</g>
</g>
<g
   id="g24">
	<g
   id="g22">
		<path
   id="path20"
   d="M74.667,0v208.128l154.389,119.979c16.683-10.645,37.312-10.645,53.909,0l154.368-119.979V0H74.667z M320,170.667h-53.333    V224c0,5.888-4.779,10.667-10.667,10.667s-10.667-4.779-10.667-10.667v-53.333H192c-5.888,0-10.667-4.779-10.667-10.667    s4.779-10.667,10.667-10.667h53.333V96c0-5.888,4.779-10.667,10.667-10.667S266.667,90.112,266.667,96v53.333H320    c5.888,0,10.667,4.779,10.667,10.667S325.888,170.667,320,170.667z" />
	</g>
</g>
<g
   id="g26">
</g>
<g
   id="g28">
</g>
<g
   id="g30">
</g>
<g
   id="g32">
</g>
<g
   id="g34">
</g>
<g
   id="g36">
</g>
<g
   id="g38">
</g>
<g
   id="g40">
</g>
<g
   id="g42">
</g>
<g
   id="g44">
</g>
<g
   id="g46">
</g>
<g
   id="g48">
</g>
<g
   id="g50">
</g>
<g
   id="g52">
</g>
<g
   id="g54">
</g>
<path
   id="path886"
   d="m 13.560528,492.07162 c -0.65677,-1.48474 -1.483649,-4.06223 -1.837508,-5.72774 -0.439149,-2.06695 -0.590622,-50.5135 -0.477176,-152.61858 l 0.166204,-149.59036 1.660706,-3.94461 c 3.141789,-7.46258 4.876643,-9.3113 22.705559,-24.19582 l 16.963856,-14.16232 0.308433,37.49836 c 0.280017,34.04351 0.406876,37.67829 1.376897,39.45118 0.713897,1.30476 26.844716,21.98008 78.743411,62.30361 42.72122,33.19294 77.63318,60.3803 77.58214,60.41634 -0.0511,0.036 -39.78823,31.10989 -88.30486,69.05298 -48.516624,37.9431 -92.59538,72.41398 -97.95279,76.60196 l -9.740745,7.61452 z"
   style="fill:#ffffff;stroke-width:0.618101;paint-order:fill markers stroke" /><path
   id="path888"
   d="M 39.171084,511.35407 C 34.754826,510.77 31.656528,509.68113 32.439309,508.98825 34.979487,506.73977 240.26667,346.4721 241.87428,345.48239 c 8.32941,-5.12791 21.12922,-4.79467 29.34669,0.76404 3.33406,2.25533 207.1116,160.31979 208.94541,162.07304 1.13875,1.08872 1.09912,1.13624 -1.54217,1.84913 -1.49103,0.40244 -4.3765,0.97355 -6.41216,1.26915 -4.62163,0.6711 -427.952403,0.58929 -433.040966,-0.0837 z"
   style="fill:#ffffff;stroke-width:0.618101;paint-order:fill markers stroke" /><path
   id="path890"
   d="m 399.23024,417.45541 -97.6565,-75.91677 1.42518,-1.35534 c 0.78385,-0.74544 35.64184,-27.92381 77.46222,-60.39639 50.96715,-39.57485 76.39029,-59.68677 77.10843,-60.99952 0.9739,-1.78026 1.09946,-5.37591 1.37983,-39.51307 l 0.30843,-37.5546 15.73012,13.05343 c 8.65157,7.17938 16.9515,14.50208 18.4443,16.27267 3.17794,3.76932 5.92606,9.263 6.83613,13.6659 0.44212,2.13902 0.59436,50.30348 0.48269,152.71479 -0.16137,147.98639 -0.17635,149.62288 -1.39711,152.62338 -0.6787,1.66816 -1.51147,3.0981 -1.8506,3.17764 -0.33914,0.0795 -44.56204,-34.01791 -98.27312,-75.77212 z"
   style="fill:#ffffff;stroke-width:0.618101;paint-order:fill markers stroke" /><path
   id="path892"
   d="M 152.17559,267.89357 75.298186,208.19277 75.278009,104.09639 75.257831,0 H 256 436.74217 l -0.0138,104.09639 -0.0138,104.09638 -76.78401,59.65456 -76.78402,59.65456 -5.09136,-2.43384 c -7.54967,-3.60899 -13.56662,-4.96294 -22.05522,-4.96294 -9.73626,0 -16.73318,1.91892 -26.58194,7.29017 -0.20079,0.10951 -34.9599,-26.66626 -77.24248,-59.50171 z m 108.45092,-34.02723 c 1.3571,-0.62319 2.97964,-1.70907 3.60564,-2.41308 2.67851,-3.01234 2.81596,-4.62075 2.84439,-33.28459 l 0.0271,-27.29638 27.91326,-0.0102 c 27.74669,-0.0101 27.92763,-0.0184 30.32272,-1.38795 3.03799,-1.73721 4.7544,-4.03373 5.26454,-7.04387 0.84238,-4.97057 -0.83281,-8.99789 -4.89183,-11.76044 l -2.03933,-1.38792 h -28.2847 -28.28469 l -0.0136,-27.60482 c -0.0125,-25.518643 -0.0996,-27.791294 -1.15235,-30.072291 -1.99564,-4.324 -5.29911,-6.477108 -9.93769,-6.477108 -4.63858,0 -7.94205,2.153108 -9.93771,6.477108 -1.05275,2.280997 -1.13984,4.553648 -1.15236,30.072291 l -0.0135,27.60482 h -28.2847 -28.28467 l -2.03933,1.38795 c -4.09092,2.78426 -5.79935,6.80487 -4.92446,11.58924 0.59292,3.24244 2.21599,5.45317 5.29717,7.21507 2.39509,1.36958 2.57603,1.37787 30.32272,1.38795 l 27.91326,0.0101 0.0271,27.29638 c 0.0284,28.66384 0.16588,30.27225 2.84439,33.28459 1.59206,1.79048 5.66773,3.54615 8.23215,3.54615 1.18747,0 3.26939,-0.50988 4.6265,-1.13307 z"
   style="fill:#ffffff;stroke-width:0.618101;paint-order:fill markers stroke" /><path
   id="path894"
   d="m 253.2241,233.9668 c -2.24925,-0.54643 -5.36149,-3.38796 -6.53071,-5.96266 -1.0704,-2.35709 -1.15401,-4.51636 -1.16659,-30.12614 l -0.0136,-27.58706 -28.63972,-0.17198 c -27.82505,-0.16708 -28.68817,-0.20815 -30.34261,-1.44382 -6.46332,-4.82734 -6.29087,-12.85256 0.37365,-17.38839 l 2.03932,-1.38795 h 28.28468 28.28468 l 0.004,-27.29639 c 0.002,-16.55001 0.24976,-28.183185 0.6291,-29.548904 0.36246,-1.304968 1.64299,-3.171629 3.04408,-4.437432 4.17048,-3.767773 9.44978,-3.767773 13.62025,0 1.40109,1.265803 2.68163,3.132464 3.04409,4.437432 0.37934,1.365719 0.62701,12.998894 0.62909,29.548904 l 0.003,27.29639 h 28.28468 28.28467 l 2.03933,1.38795 c 6.66466,4.53592 6.83711,12.56095 0.37365,17.38839 -1.65444,1.23567 -2.51756,1.27674 -30.34261,1.44382 l -28.63972,0.17198 -0.0136,27.58706 c -0.0125,25.44621 -0.10148,27.77854 -1.14662,30.05453 -2.2174,4.8288 -7.08153,7.25405 -12.10249,6.03427 z"
   style="fill:#28170b;stroke-width:0.618101;paint-order:fill markers stroke" /></svg>
