<?xml version="1.0" encoding="iso-8859-1"?>
<!-- Generator: Adobe Illustrator 18.0.0, SVG Export Plug-In . SVG Version: 6.00 Build 0)  -->
<!DOCTYPE svg PUBLIC "-//W3C//DTD SVG 1.1//EN" "http://www.w3.org/Graphics/SVG/1.1/DTD/svg11.dtd">
<svg version="1.1" id="Capa_1" xmlns="http://www.w3.org/2000/svg" xmlns:xlink="http://www.w3.org/1999/xlink" x="0px" y="0px"
	 viewBox="0 0 186 186" style="enable-background:new 0 0 186 186;" xml:space="preserve">
<path d="M186,24.333C186,10.894,175.106,0,161.667,0H24.333C10.894,0,0,10.894,0,24.333v137.333C0,175.106,10.894,186,24.333,186
	h137.333C175.106,186,186,175.106,186,161.667V24.333z M142.333,134h-98c-4.143,0-7.5-3.357-7.5-7.5s3.357-7.5,7.5-7.5h98
	c4.143,0,7.5,3.357,7.5,7.5S146.476,134,142.333,134z M142.333,99h-98c-4.143,0-7.5-3.357-7.5-7.5s3.357-7.5,7.5-7.5h98
	c4.143,0,7.5,3.357,7.5,7.5S146.476,99,142.333,99z M142.333,67h-75c-4.143,0-7.5-3.357-7.5-7.5s3.357-7.5,7.5-7.5h75
	c4.143,0,7.5,3.357,7.5,7.5S146.476,67,142.333,67z"/>
<g>
</g>
<g>
</g>
<g>
</g>
<g>
</g>
<g>
</g>
<g>
</g>
<g>
</g>
<g>
</g>
<g>
</g>
<g>
</g>
<g>
</g>
<g>
</g>
<g>
</g>
<g>
</g>
<g>
</g>
</svg>
