<?xml version="1.0" encoding="UTF-8" standalone="no"?>
<svg
   xmlns:dc="http://purl.org/dc/elements/1.1/"
   xmlns:cc="http://creativecommons.org/ns#"
   xmlns:rdf="http://www.w3.org/1999/02/22-rdf-syntax-ns#"
   xmlns:svg="http://www.w3.org/2000/svg"
   xmlns="http://www.w3.org/2000/svg"
   xmlns:sodipodi="http://sodipodi.sourceforge.net/DTD/sodipodi-0.dtd"
   xmlns:inkscape="http://www.inkscape.org/namespaces/inkscape"
   inkscape:version="1.0 (4035a4fb49, 2020-05-01)"
   sodipodi:docname="mail1.svg"
   xml:space="preserve"
   style="enable-background:new 0 0 230.17 230.17;"
   viewBox="0 0 230.17 230.17"
   y="0px"
   x="0px"
   id="Capa_1"
   version="1.1"><metadata
   id="metadata47"><rdf:RDF><cc:Work
       rdf:about=""><dc:format>image/svg+xml</dc:format><dc:type
         rdf:resource="http://purl.org/dc/dcmitype/StillImage" /><dc:title></dc:title></cc:Work></rdf:RDF></metadata><defs
   id="defs45" /><sodipodi:namedview
   inkscape:current-layer="Capa_1"
   inkscape:window-maximized="1"
   inkscape:window-y="-9"
   inkscape:window-x="-9"
   inkscape:cy="92.345313"
   inkscape:cx="115.085"
   inkscape:zoom="3.6060304"
   showgrid="false"
   id="namedview43"
   inkscape:window-height="1001"
   inkscape:window-width="1920"
   inkscape:pageshadow="2"
   inkscape:pageopacity="0"
   guidetolerance="10"
   gridtolerance="10"
   objecttolerance="10"
   borderopacity="1"
   bordercolor="#666666"
   pagecolor="#ffffff" />
<g
   style="fill-rule:nonzero"
   id="g10">
	<path
   style="fill-rule:nonzero"
   id="path2"
   d="M230,49.585c0-0.263,0.181-0.519,0.169-0.779l-70.24,67.68l70.156,65.518c0.041-0.468-0.085-0.94-0.085-1.418V49.585z" />
	<path
   style="fill-rule:nonzero"
   id="path4"
   d="M149.207,126.901l-28.674,27.588c-1.451,1.396-3.325,2.096-5.2,2.096c-1.836,0-3.672-0.67-5.113-2.013l-28.596-26.647   L11.01,195.989c1.717,0.617,3.56,1.096,5.49,1.096h197.667c2.866,0,5.554-0.873,7.891-2.175L149.207,126.901z" />
	<path
   style="fill-rule:nonzero"
   id="path6"
   d="M115.251,138.757L222.447,35.496c-2.427-1.443-5.252-2.411-8.28-2.411H16.5c-3.943,0-7.556,1.531-10.37,3.866   L115.251,138.757z" />
	<path
   style="fill-rule:nonzero"
   id="path8"
   d="M0,52.1v128.484c0,1.475,0.339,2.897,0.707,4.256l69.738-67.156L0,52.1z" />
</g>
<g
   id="g12">
</g>
<g
   id="g14">
</g>
<g
   id="g16">
</g>
<g
   id="g18">
</g>
<g
   id="g20">
</g>
<g
   id="g22">
</g>
<g
   id="g24">
</g>
<g
   id="g26">
</g>
<g
   id="g28">
</g>
<g
   id="g30">
</g>
<g
   id="g32">
</g>
<g
   id="g34">
</g>
<g
   id="g36">
</g>
<g
   id="g38">
</g>
<g
   id="g40">
</g>
<path
   id="path872"
   d="M 0.70617711,184.15686 C 0.06572318,183.12059 -0.00829067,175.26541 0.06277923,115.87228 L 0.13865663,52.461552 34.386843,84.339778 C 53.223346,101.8728 68.978205,116.55823 69.397641,116.97407 l 0.762614,0.75607 -31.243683,30.08316 c -17.184026,16.54573 -32.7732715,31.5531 -34.6427674,33.34971 -1.8694959,1.79661 -3.47492819,3.14384 -3.56762749,2.99385 z"
   style="fill:#ffffff;fill-rule:nonzero;stroke-width:0.277868;paint-order:fill markers stroke" /><path
   id="path874"
   d="M 60.775636,87.714497 6.4127139,37.021319 7.1570616,36.4018 c 1.089698,-0.906954 3.8524384,-2.205461 5.7365134,-2.6962 1.466741,-0.382038 12.456726,-0.42757 102.319015,-0.423911 109.90024,0.0045 102.31526,-0.107278 105.5972,1.555805 l 1.44438,0.731924 -1.256,1.14192 c -0.6908,0.628057 -24.69671,23.729085 -53.34646,51.335619 -28.64976,27.606533 -52.18557,50.231273 -52.30181,50.277213 -0.11624,0.0459 -24.674657,-22.72842 -54.574264,-50.609673 z"
   style="fill:#ffffff;fill-rule:nonzero;stroke-width:0.277868;paint-order:fill markers stroke" /><path
   id="path876"
   d="m 195.08987,149.07865 c -19.06528,-17.80449 -34.66415,-32.47368 -34.66415,-32.59821 0,-0.12452 15.59887,-15.25694 34.66415,-33.627591 l 34.66416,-33.401182 0.0704,32.955324 c 0.0387,18.125429 0.0387,47.825149 0,65.999379 l -0.0704,33.04407 z"
   style="fill:#ffffff;fill-rule:nonzero;stroke-width:0.277868;paint-order:fill markers stroke" /><path
   id="path878"
   d="m 13.048574,196.44993 c -0.830704,-0.22329 -1.547038,-0.44264 -1.591853,-0.48746 -0.07023,-0.0702 60.154737,-58.23622 67.547303,-65.238 l 2.665444,-2.52454 14.558588,13.5716 c 8.007224,7.46438 15.057754,13.83826 15.667844,14.16417 1.60318,0.85644 5.05456,0.85115 6.79417,-0.0104 0.8361,-0.41408 6.05239,-5.24041 15.80686,-14.62513 8.00742,-7.70392 14.63119,-14.00852 14.71949,-14.01025 0.16613,-0.003 67.88912,63.1241 70.81904,66.01331 l 1.65128,1.62833 -1.51262,0.66698 c -0.83194,0.36685 -2.17392,0.80804 -2.98217,0.98043 -1.07815,0.22996 -28.25797,0.30858 -102.05127,0.29519 -87.393204,-0.0159 -100.779778,-0.0715 -102.092106,-0.42423 z"
   style="fill:#ffffff;fill-rule:nonzero;stroke-width:0.277868;paint-order:fill markers stroke" /></svg>
