<svg id="Layer" enable-background="new 0 0 64 64" height="512" viewBox="0 0 64 64" width="512" xmlns="http://www.w3.org/2000/svg"><path d="m10 34h13.172l-2.586 2.586c-.781.781-.781 2.047 0 2.828.39.391.902.586 1.414.586s1.024-.195 1.414-.586l6-6c.781-.781.781-2.047 0-2.828l-6-6c-.78-.781-2.048-.781-2.828 0-.781.781-.781 2.047 0 2.828l2.586 2.586h-13.172c-1.104 0-2 .896-2 2s.896 2 2 2z"/><path d="m54 30h-13.172l2.586-2.586c.781-.781.781-2.047 0-2.828s-2.047-.781-2.828 0l-6 6c-.781.781-.781 2.047 0 2.828l6 6c.391.391.902.586 1.414.586s1.023-.195 1.414-.586c.781-.781.781-2.047 0-2.828l-2.586-2.586h13.172c1.104 0 2-.896 2-2s-.896-2-2-2z"/></svg>